<svg xmlns="http://www.w3.org/2000/svg" width="24" height="24" viewBox="0 0 24 24"><path d="M21.23 0H2.77A2.77 2.77 0 0 0 0 2.77v18.46A2.77 2.77 0 0 0 2.77 24H21.23A2.77 2.77 0 0 0 24 21.23V2.77A2.77 2.77 0 0 0 21.23 0zM12 7.385a4.615 4.615 0 1 1 .002 9.23A4.615 4.615 0 0 1 12 7.385zm9 12.693c0 .51-.413.922-.924.922H3.924A.923.923 0 0 1 3 20.078V10h1.897a7.56 7.56 0 0 0-.2.97c-.05.338-.08.68-.08 1.03a7.384 7.384 0 0 0 14.767 0c0-.35-.03-.692-.08-1.028a7.56 7.56 0 0 0-.2-.97H21v10.076zm0-13.98c0 .51-.413.923-.924.923h-2.174a.923.923 0 0 1-.923-.922V3.923c0-.51.41-.923.922-.923h2.174c.51 0 .924.413.924.923v2.175z" fill-rule="evenodd" clip-rule="evenodd"/></svg>